<svg width="161" height="161" viewBox="0 0 161 161" fill="none" xmlns="http://www.w3.org/2000/svg">
<g opacity="0.7" clip-path="url(#clip0_1299_3784)">
<path d="M135.554 120.75H112.491V96.2296C112.523 94.7405 111.964 93.2992 110.937 92.2207C110.463 91.6934 109.881 91.2734 109.231 90.9888C108.582 90.7042 107.879 90.5616 107.17 90.5705C106.459 90.5604 105.754 90.7025 105.103 90.9871C104.452 91.2717 103.869 91.6924 103.394 92.2207C102.367 93.2992 101.808 94.7405 101.84 96.2296V120.758H79.9605C79.2513 120.749 78.5483 120.892 77.8986 121.176C77.2489 121.461 76.6675 121.881 76.1931 122.408C75.1658 123.487 74.6072 124.928 74.6395 126.417C74.6072 127.906 75.1658 129.348 76.1931 130.426C76.6675 130.953 77.2489 131.373 77.8986 131.658C78.5483 131.943 79.2513 132.085 79.9605 132.076H101.84V155.341C101.808 156.83 102.367 158.271 103.394 159.35C103.869 159.878 104.452 160.299 105.103 160.583C105.754 160.868 106.459 161.01 107.17 161C108.643 161 109.907 160.453 110.937 159.35C111.964 158.271 112.523 156.83 112.491 155.341V132.076H135.554C137.035 132.076 138.291 131.521 139.321 130.426C140.349 129.348 140.907 127.906 140.875 126.417C140.907 124.928 140.349 123.487 139.321 122.408C138.847 121.881 138.265 121.461 137.616 121.176C136.966 120.892 136.263 120.749 135.554 120.758V120.75ZM139.708 40.4673L107.306 3.87199L103.764 0.0160416H30.4289C29.0604 0.0160416 27.5309 -0.0644584 26.1946 0.152892C24.5913 0.380544 23.126 1.18475 22.073 2.41494C19.8109 4.97484 20.141 8.18679 20.141 11.3343V149.674C20.141 152.821 19.7787 156.226 22.073 158.609C24.3672 160.992 25.9048 160.992 28.8591 160.992H69.3104C70.7916 160.992 72.0474 160.444 73.0858 159.342C74.1132 158.263 74.6718 156.822 74.6395 155.333C74.6718 153.844 74.1132 152.402 73.0858 151.324C72.6106 150.795 72.0278 150.375 71.3767 150.09C70.7255 149.806 70.021 149.664 69.3104 149.674H30.9521L30.9038 10.9801H89.4676V39.9038C89.4676 43.0513 90.6912 45.8849 92.6151 47.9216C94.5471 49.9582 97.2036 51.2221 100.158 51.2221H130.225V84.9113C130.192 86.4005 130.751 87.8418 131.778 88.9202C132.253 89.4476 132.834 89.8676 133.484 90.1522C134.134 90.4368 134.837 90.5794 135.546 90.5705C137.027 90.5705 138.283 90.015 139.321 88.9202C140.346 87.8405 140.901 86.3993 140.867 84.9113V44.0737L140.875 41.8277L139.708 40.4673ZM100.77 39.0827C100.44 38.656 100.238 37.9074 100.166 36.8287V12.2359L124.791 39.9038H102.718C101.752 39.775 101.108 39.5013 100.77 39.0746V39.0827Z" fill="#68CAB5"/>
</g>
<defs>
<clipPath id="clip0_1299_3784">
<rect width="161" height="161" fill="white"/>
</clipPath>
</defs>
</svg>
